<svg id="prize1" xmlns="http://www.w3.org/2000/svg" xmlns:xlink="http://www.w3.org/1999/xlink" viewBox="0 0 350 330">
  <g id="prize1Clouds">
    <g opacity="0">
      <path d="M41.77,97.54H77.06a12.4,12.4,0,1,1,24.8,0h17.93" fill="none" stroke="#fff" stroke-linecap="round" stroke-miterlimit="10" stroke-width="2" />
      <line x1="68.95" y1="107.8" x2="131.86" y2="107.8" fill="none" stroke="#fff" stroke-linecap="round" stroke-miterlimit="10" stroke-width="2">
        <animateTransform
            attributeName="transform"
            type="translate"
            from="-30, 0"
            to="0, 0"
            dur="1.6s"
            begin="prize1MoveClouds.begin"
            />
      </line>
      <animate
          attributeName="opacity"
          values="0; 1; 0"
          dur="1.6s"
          begin="prize1MoveClouds.begin"
          />
    </g>
    <g opacity="0">
      <path d="M278.75,82.91H251.39a12.4,12.4,0,1,0-24.8,0H208.65" fill="none" stroke="#fff" stroke-linecap="round" stroke-miterlimit="10" stroke-width="2"/>
      <line x1="287.01" y1="82.91" x2="309.21" y2="82.91" fill="none" stroke="#fff" stroke-linecap="round" stroke-miterlimit="10" stroke-width="2"/>
      <line x1="258.96" y1="93.19" x2="298.74" y2="93.19" fill="none" stroke="#fff" stroke-linecap="round" stroke-miterlimit="10" stroke-width="2">
        <animateTransform
          attributeName="transform"
          type="translate"
          from="0, 0"
          to="30, 0"
          dur="1.6s"
          begin="prize1MoveClouds.begin + 1.1s"
          />
      </line>
      <animate
          attributeName="opacity"
          values="0; 1; 0"
          dur="1.6s"
          begin="prize1MoveClouds.begin + 0.8s"
          />
    </g>
    <animateTransform
        id="prize1MoveClouds"
        attributeName="transform"
        type="translate"
        from="200, 0"
        to="-200, 0"
        dur="2.6s"
        begin="prize1Animation.begin"
        fill="freeze"
        />
  </g>
  <g id="prize1Airship">
    <g id="prize1Cabin">
      <path d="M175.44,249.28h48.36a13.27,13.27,0,0,0,13-10.65l3.74-18.32H172.36v25.89A3.09,3.09,0,0,0,175.44,249.28Z" fill="none" stroke="#fff" stroke-linecap="round" stroke-linejoin="round" stroke-width="2"/>
      <path d="M235.79,241.69h-9.22a8.31,8.31,0,0,1-8.28-8.31V220.31" fill="none" stroke="#fff" stroke-linecap="round" stroke-miterlimit="10" stroke-width="2"/>
      <path d="M204.25,231.88h-2.05a3.45,3.45,0,0,0-3.43,3.45v2.92a3.45,3.45,0,0,0,3.43,3.45h2.05a3.45,3.45,0,0,0,3.43-3.45v-2.92A3.44,3.44,0,0,0,204.25,231.88Z" fill="none" stroke="#fff" stroke-linecap="round" stroke-linejoin="round" stroke-width="2">
        <animate
            attributeName="opacity"
            values="1; 0"
            dur="0.05s"
            begin="prize1Animation.begin + 1.5s"
            fill="freeze"
            />
      </path>
      <path d="M185.64,231.88h-2.05a3.45,3.45,0,0,0-3.43,3.45v2.92a3.45,3.45,0,0,0,3.43,3.45h2.05a3.45,3.45,0,0,0,3.43-3.45v-2.92A3.45,3.45,0,0,0,185.64,231.88Z" fill="none" stroke="#fff" stroke-linecap="round" stroke-linejoin="round" stroke-width="2"/>
      <animateTransform
          attributeName="transform"
          type="translate"
          values="0 0; -8 23; 0 0"
          keyTimes="0; 0.5; 1"
          dur="1.4s"
          begin="prize1Animation.begin"
          repeatCount="indefinite"
          />
      <animateTransform
          attributeName="transform"
          type="scale"
          values="1 1; 1 0.9; 1 1"
          keyTimes="0; 0.5; 1"
          dur="1.4s"
          begin="prize1Animation.begin"
          additive="sum"
          repeatCount="indefinite"
          />
      <animateTransform
          attributeName="transform"
          type="skewX"
          values="0; 2; 0"
          keyTimes="0; 0.5; 1"
          dur="1.4s"
          begin="prize1Animation.begin"
          additive="sum"
          repeatCount="indefinite"
          />
    </g>
    <g id="prize1StabilizersBack">
      <path d="M123.23,173.34h9.16a3.29,3.29,0,0,1,3.29,3.3v5.71a3.29,3.29,0,0,1-3.29,3.3H115.57a1.32,1.32,0,0,1-1.32-1.32v-2a9,9,0,0,1,9-9" fill="#068e4d"/>
      <path d="M123.23,173.34h9.16a3.29,3.29,0,0,1,3.29,3.3v5.71a3.29,3.29,0,0,1-3.29,3.3H115.57a1.32,1.32,0,0,1-1.32-1.32v-2A9,9,0,0,1,123.23,173.34Z" fill="none" stroke="#fff" stroke-linecap="round" stroke-linejoin="round" stroke-width="2"/>
      <path d="M123.23,207.39h9.16a3.29,3.29,0,0,0,3.29-3.3v-5.71a3.29,3.29,0,0,0-3.29-3.3H115.57a1.32,1.32,0,0,0-1.32,1.32v2a9,9,0,0,0,9,9" fill="#068e4d"/>
      <path d="M123.23,207.39h9.16a3.29,3.29,0,0,0,3.29-3.3v-5.71a3.29,3.29,0,0,0-3.29-3.3H115.57a1.32,1.32,0,0,0-1.32,1.32v2A9,9,0,0,0,123.23,207.39Z" fill="none" stroke="#fff" stroke-linecap="round" stroke-linejoin="round" stroke-width="2"/>
      <animateTransform
          attributeName="transform"
          type="translate"
          values="0 2.4; 0 -2.4; 0 2.4"
          keyTimes="0; 0.5; 1"
          dur="1.4s"
          begin="prize1Animation.begin"
          repeatCount="indefinite"
          />
    </g>
    <g id="prize1OuterShell">
      <path d="M205,227.08c43.38,0,74.86-15.55,74.86-37s-31.48-37-74.86-37c-27.94,0-55.36,13.53-73.46,24.87a14.3,14.3,0,0,0,0,24.21c18.09,11.33,45.52,24.87,73.46,24.87" fill="#068e4d"/>
      <path d="M205,227.08c43.38,0,74.86-15.55,74.86-37s-31.48-37-74.86-37c-27.94,0-55.36,13.53-73.46,24.87a14.3,14.3,0,0,0,0,24.21C149.63,213.54,177.06,227.08,205,227.08Z" fill="none" stroke="#fff" stroke-width="2"/>
      <path d="m 126.11,190.43 c -0.16616,-4.62132 2.14832,-8.97956 6.07,-11.43 16.74,-10.5 44.58,-24.68 72.81,-24.68 44.81,0 73.64,16 73.64,35.75 v 0.37" fill="#36e69a"/>
      <path d="M132.18,195.12c16.74,4.27,44.58,10,72.81,10,44.14,0,72.75-6.32,73.6-14.18-0.86,19.34-29.45,34.86-73.6,34.86-28.23,0-56.07-14.19-72.81-24.68a12.88,12.88,0,0,1-6-10.18c0.26,1.61,2.26,3.18,6,4.14" fill="#068e4d"/>
      <path d="M132.18,186.12c16.74-4.27,44.58-10,72.81-10,44.53,0,73.26,6.43,73.61,14.38,0,0.17,0,.34,0,0.51-0.85,7.86-29.45,14.17-73.6,14.17-28.23,0-56.07-5.76-72.81-10-3.79-1-5.79-2.53-6-4.13l0-.51c0.13-1.69,2.15-3.36,6.1-4.37" fill="#25b774">
        <animate
            attributeName="d"
            values="
              m 132.18,186.12 c 16.74,-4.27 44.58,-13 72.81,-13 44.53,0 73.26,9.43 73.61,17.38 v 0.51 c -0.85,7.86 -29.45,11.17 -73.6,11.17 -28.23,0 -56.07,-2.76 -72.81,-7 -3.79,-1 -5.79,-2.53 -6,-4.13 v -0.51 c 0.13,-1.69 2.15,-3.36 6.1,-4.37;
              m 132.18,186.12 c 16.74,-4.27 44.58,-7 72.81,-7 44.53,0 73.26,3.43 73.61,11.38 v 0.51 c -0.85,7.86 -29.45,17.17 -73.6,17.17 -28.23,0 -56.07,-8.76 -72.81,-13 -3.79,-1 -5.79,-2.53 -6,-4.13 v -0.51 c 0.13,-1.69 2.15,-3.36 6.1,-4.37;
              m 132.18,186.12 c 16.74,-4.27 44.58,-13 72.81,-13 44.53,0 73.26,9.43 73.61,17.38 v 0.51 c -0.85,7.86 -29.45,11.17 -73.6,11.17 -28.23,0 -56.07,-2.76 -72.81,-7 -3.79,-1 -5.79,-2.53 -6,-4.13 v -0.51 c 0.13,-1.69 2.15,-3.36 6.1,-4.37
            "
            dur="1.4s"
            begin="prize1Animation.begin"
            repeatCount="indefinite"
            />
      </path>
    </g>
    <g id="prize1StabilizersFront">
      <path d="M123.23,173.34h9.16a3.29,3.29,0,0,1,3.29,3.3v5.71a3.29,3.29,0,0,1-3.29,3.3H115.57a1.32,1.32,0,0,1-1.32-1.32v-2a9,9,0,0,1,9-9" fill="#068e4d"/>
      <path d="M123.23,173.34h9.16a3.29,3.29,0,0,1,3.29,3.3v5.71a3.29,3.29,0,0,1-3.29,3.3H115.57a1.32,1.32,0,0,1-1.32-1.32v-2A9,9,0,0,1,123.23,173.34Z" fill="none" stroke="#fff" stroke-linecap="round" stroke-linejoin="round" stroke-width="2"/>
      <path d="M123.23,207.39h9.16a3.29,3.29,0,0,0,3.29-3.3v-5.71a3.29,3.29,0,0,0-3.29-3.3H115.57a1.32,1.32,0,0,0-1.32,1.32v2a9,9,0,0,0,9,9" fill="#068e4d"/>
      <path d="M123.23,207.39h9.16a3.29,3.29,0,0,0,3.29-3.3v-5.71a3.29,3.29,0,0,0-3.29-3.3H115.57a1.32,1.32,0,0,0-1.32,1.32v2A9,9,0,0,0,123.23,207.39Z" fill="none" stroke="#fff" stroke-linecap="round" stroke-linejoin="round" stroke-width="2"/>
      <animateTransform
          attributeName="transform"
          type="translate"
          values="0 -2.4; 0 2.4; 0 -2.4"
          keyTimes="0; 0.5; 1"
          dur="1.4s"
          begin="prize1Animation.begin"
          repeatCount="indefinite"
          />
    </g>
    <g id="prize1Airflow">
      <line x1="106.25" y1="179.49" x2="84.05" y2="179.49" fill="none" stroke="#fff" stroke-linecap="round" stroke-miterlimit="10" stroke-width="2">
        <animate
            attributeName="x2"
            from="84.0"
            to="88.0"
            dur="0.2s"
            begin="prize1Animation.begin - 0.1s"
            repeatCount="indefinite"
            />
      </line>
      <line x1="106.25" y1="201.23" x2="84.05" y2="201.23" fill="none" stroke="#fff" stroke-linecap="round" stroke-miterlimit="10" stroke-width="2">
        <animate
            attributeName="x2"
            from="84.0"
            to="88.0"
            dur="0.2s"
            begin="prize1Animation.begin - 0.2s"
            repeatCount="indefinite"
            />
      </line>
      <line x1="106.25" y1="190.98" x2="68.77" y2="190.98" fill="none" stroke="#fff" stroke-linecap="round" stroke-miterlimit="10" stroke-width="2">
        <animate
            attributeName="x2"
            from="68.0"
            to="72.0"
            dur="0.2s"
            begin="prize1Animation.begin - 0.3s"
            repeatCount="indefinite"
            />
      </line>
    </g>
    <animate
        attributeName="opacity"
        values="1; 0"
        dur="0.4s"
        begin="prize1Animation.begin + 1.7s"
        fill="freeze"
        />
  </g>
  <g id="prize1Mountains">
    <path d="M 289.94 329 L 244.88 329 L 212.8 296.58 C 212.096 295.985 211.064 295.985 210.36 296.58 L 200.16 306.81 C 199.514 307.369 198.556 307.369 197.91 306.81 L 178.91 286.64 C 178.015 285.883 176.705 285.883 175.81 286.64 L 149.39 312.28 C 148.746 312.843 147.784 312.843 147.14 312.28 L 144.51 309.36 C 143.856 308.761 142.854 308.761 142.2 309.36 L 124.63 329 L 80.78 329" fill="none" stroke="#fff" stroke-linecap="round" stroke-miterlimit="10" stroke-width="2">
      <animate
          id="prize1MountainsAnimation"
          attributeName="d"
          values="
            M 289.94 329 L 244.88 329 L 212.8 296.58 C 212.096 295.985 211.064 295.985 210.36 296.58 L 200.16 306.81 C 199.514 307.369 198.556 307.369 197.91 306.81 L 178.91 286.64 C 178.015 285.883 176.705 285.883 175.81 286.64 L 149.39 312.28 C 148.746 312.843 147.784 312.843 147.14 312.28 L 144.51 309.36 C 143.856 308.761 142.854 308.761 142.2 309.36 L 124.63 329 L 80.78 329;
            M 289.94 329 L 244.88 329 L 212.8 329 C 211.987 329 211.173 329 210.36 329 L 200.16 329 C 199.41 329 198.66 329 197.91 329 L 178.91 329 C 177.877 329 176.843 329 175.81 329 L 149.39 329 C 148.64 329 147.89 329 147.14 329 L 144.51 329 C 143.74 329 142.97 329 142.2 329 L 124.63 329 L 80.78 329
          "
          dur="0.5s"
          begin="prize1Animation.begin + 1.5s"
          fill="freeze"
          />
    </path>
  </g>

  <defs>
    <clipPath id="prize1Window">
      <path d="M275,225.43H257.87a17.6,17.6,0,0,1-17.52-17.58V170a17.6,17.6,0,0,1,17.52-17.58H275A17.6,17.6,0,0,1,292.51,170v37.83A17.61,17.61,0,0,1,275,225.43Z"/>
    </clipPath>
  </defs>
  <g clip-path="url(#prize1Window)">
    <g id="prize1Clouds2" transform="translate(295 175)">
      <g transform="scale(0.55 0.55)">
        <path d="M41.77,97.54H77.06a12.4,12.4,0,1,1,24.8,0h17.93" transform="translate(-40.77 -69.46)" fill="none" stroke="#fff" stroke-linecap="round" stroke-miterlimit="10" stroke-width="2"/>
        <line x1="28.18" y1="38.34" x2="91.09" y2="38.34" fill="none" stroke="#fff" stroke-linecap="round" stroke-miterlimit="10" stroke-width="2"/>
        <animate
            attributeName="opacity"
            values="1; 1; 0"
            dur="1.5s"
            begin="prize1MoveClouds2.begin + 0.25s"
            />
      </g>
      <g transform="scale(0.55 0.55)">
        <path d="M278.75,82.91H251.39a12.4,12.4,0,1,0-24.8,0H208.65" transform="translate(-40.77 -69.46)" fill="none" stroke="#fff" stroke-linecap="round" stroke-miterlimit="10" stroke-width="2"/>
        <line x1="246.24" y1="13.45" x2="268.43" y2="13.45" fill="none" stroke="#fff" stroke-linecap="round" stroke-miterlimit="10" stroke-width="2"/>
        <line x1="218.19" y1="23.72" x2="257.97" y2="23.72" fill="none" stroke="#fff" stroke-linecap="round" stroke-miterlimit="10" stroke-width="2"/>
        <animate
            attributeName="opacity"
            values="1; 1; 0"
            dur="1.5s"
            begin="prize1MoveClouds2.begin + 1.8s"
            />
      </g>
      <animateTransform
          id="prize1MoveClouds2"
          attributeName="transform"
          type="translate"
          from="300, 175"
          to="85, 175"
          dur="3.4s"
          begin="prize1ResizeWindow.end; prize1MoveClouds2.end"
          additive="replace"
          />
    </g>
  </g>
  <g opacity="0">
    <path d="M275,225.43H257.87a17.6,17.6,0,0,1-17.52-17.58V170a17.6,17.6,0,0,1,17.52-17.58H275A17.6,17.6,0,0,1,292.51,170v37.83A17.61,17.61,0,0,1,275,225.43Z" fill="none" stroke="#fff" stroke-width="2">
      <animate
          id="prize1ResizeWindow"
          attributeName="d"
          values="
            M 204.25 231.88 L 202.2 231.88 C 200.302 231.891 198.77 233.432 198.77 235.33 L 198.77 238.25 C 198.77 240.148 200.302 241.689 202.2 241.7 L 204.25 241.7 C 206.148 241.689 207.68 240.148 207.68 238.25 L 207.68 235.33 C 207.686 233.43 206.15 231.886 204.25 231.88 Z;
            M 275 152.42 L 257.87 152.42 C 247.768 152.603 240.35 160.644 240.35 170 L 240.35 207.85 C 240.35 218.296 248.973 225.362 257.87 225.43 L 275 225.43 C 284.757 225.362 292.51 217.587 292.51 207.83 L 292.51 170 C 292.381 160.265 284.854 152.333 275 152.42 Z
          "
          dur="0.5s"
          begin="prize1Animation.begin + 1.5s"
          />
    </path>
    <animate
        attributeName="opacity"
        values="0; 1"
        dur="0.05s"
        begin="prize1Animation.begin + 1.5s"
        fill="freeze"
        />
  </g>
  <g id="prize1Skis" opacity="0">
    <path d="M91.14,327.79a2.2,2.2,0,0,1-2-2.36l13.66-193.17c1.1-15.49-4.8-21.92-8.75-24.47a1.35,1.35,0,0,1,.53-2.45C103,104,122.18,104,120,134.19L106.43,326.67a2.2,2.2,0,0,1-2.35,2Z" fill="#fff"/>
    <path d="M124.5,328.17a2.2,2.2,0,0,1-2.17-2.23l2.24-193.63c0.19-15.53-6.07-21.61-10.16-23.91a1.35,1.35,0,0,1,.39-2.47c8.36-1.9,27.49-3,27.15,27.28l-2.25,192.93a2.2,2.2,0,0,1-2.22,2.18Z" fill="#fff"/>
    <animate
        attributeName="opacity"
        values="0; 1"
        dur="0.4s"
        begin="prize1MoveSkis.begin"
        fill="freeze"
        />
    <animateTransform
        id="prize1MoveSkis"
        attributeName="transform"
        type="translate"
        from="-90, 0"
        to="0, 0"
        dur="0.4s"
        begin="prize1MoveSeat.begin + 0.05s"
        />
  </g>
  <g id="prize1Seat" opacity="0">
    <path d="M257.5,259.82H196.76V245.63h55.09a9.92,9.92,0,0,1,9.9,9.93,4.26,4.26,0,0,1-4.25,4.25" fill="#a67ee5"/>
    <path d="M257.5,259.82H196.76V245.63h55.09a9.92,9.92,0,0,1,9.9,9.93A4.26,4.26,0,0,1,257.5,259.82Z" fill="none" stroke="#fff" stroke-miterlimit="10" stroke-width="2"/>
    <polygon points="185.47 328.31 171.5 328.31 165.19 286.72 179.16 286.72 185.47 328.31" fill="#a67ee5"/>
    <polygon points="185.47 328.31 171.5 328.31 165.19 286.72 179.16 286.72 185.47 328.31" fill="none" stroke="#fff" stroke-miterlimit="10" stroke-width="2"/>
    <polygon points="235.03 328.31 221.06 328.31 214.76 286.72 228.72 286.72 235.03 328.31" fill="#a67ee5"/>
    <polygon points="235.03 328.31 221.06 328.31 214.76 286.72 228.72 286.72 235.03 328.31" fill="none" stroke="#fff" stroke-miterlimit="10" stroke-width="2"/>
    <path d="M281.33,272.45H225.44a5.59,5.59,0,0,1-5.53-4.77l-10.86-72.24a17.71,17.71,0,0,0-12.49-31.31H141.48L141.16,267l15.77,23.35,47.19,8.39a12.3,12.3,0,0,0,4.22.75h73a13.53,13.53,0,0,0,0-27.06" fill="#a67ee5"/>
    <path d="M281.33,272.45H225.44a5.59,5.59,0,0,1-5.53-4.77l-10.86-72.24a17.71,17.71,0,0,0-12.49-31.31H141.48L141.16,267l15.77,23.35,47.19,8.39a12.3,12.3,0,0,0,4.22.75h73A13.53,13.53,0,0,0,281.33,272.45Z" fill="none" stroke="#fff" stroke-miterlimit="10" stroke-width="2"/>
    <path d="M162.42,267.69l-10.86-72.24a17.71,17.71,0,1,0-29-13.61,18,18,0,0,0,.79,5.25L138.65,289a12.36,12.36,0,0,0,12.21,10.54h73a13.53,13.53,0,0,0,0-27.05H167.95a5.62,5.62,0,0,1-5.53-4.78" fill="#a67ee5"/>
    <path d="M162.42,267.69l-10.86-72.24a17.71,17.71,0,1,0-29-13.61,18,18,0,0,0,.79,5.25L138.65,289a12.36,12.36,0,0,0,12.21,10.54h73a13.53,13.53,0,0,0,0-27.05H167.95A5.62,5.62,0,0,1,162.42,267.69Z" fill="none" stroke="#fff" stroke-miterlimit="10" stroke-width="2"/>
    <path d="M206.26,259.82h-72l-2.13-14.19H200.6a9.92,9.92,0,0,1,9.9,9.93,4.26,4.26,0,0,1-4.25,4.25" fill="#a67ee5"/>
    <path d="M206.26,259.82h-72l-2.13-14.19H200.6a9.92,9.92,0,0,1,9.9,9.93A4.26,4.26,0,0,1,206.26,259.82Z" fill="none" stroke="#fff" stroke-miterlimit="10" stroke-width="2"/>
    <line x1="151.57" y1="195.44" x2="209.05" y2="195.44" fill="none" stroke="#fff" stroke-linecap="round" stroke-miterlimit="10" stroke-width="2"/>
    <animate
        attributeName="opacity"
        values="0; 1"
        dur="0.4s"
        begin="prize1MoveSeat.begin"
        fill="freeze"
        />
    <animateTransform
        id="prize1MoveSeat"
        attributeName="transform"
        type="translate"
        from="-120, 0"
        to="0, 0"
        dur="0.4s"
        begin="prize1MountainsAnimation.end - 0.2s"
        />
  </g>
  <g id="prize1Leaf" opacity="0" transform="rotate(-6 150 329)">
    <path d="M79.18,194A131,131,0,0,1,94.77,220.9a255,255,0,0,1-20.08-23.55,259,259,0,0,1-17.07-25.88A131.72,131.72,0,0,1,79.18,194" fill="#36e69a"/>
    <path d="M80.94,214.39a127.19,127.19,0,0,1,22.8,20.49A242.09,242.09,0,0,1,77.9,219.17a235.86,235.86,0,0,1-23.42-18.7,119.82,119.82,0,0,1,26.46,13.92" fill="#36e69a"/>
    <path d="M93.66,205.48a258.38,258.38,0,0,0,10.08,29.39,125.63,125.63,0,0,0-4.5-30.52,135.9,135.9,0,0,0-12.06-29.44,260.33,260.33,0,0,0,6.47,30.57" fill="#36e69a"/>
    <path d="M107.32,213.52a250.14,250.14,0,0,0,2.06,30.67,119.93,119.93,0,0,0,3.76-30.05,131.24,131.24,0,0,0-4-31.36,238.1,238.1,0,0,0-1.87,30.74" fill="#25b774"/>
    <path d="M83.08,229.56a121.93,121.93,0,0,1,26.29,14.64A225.91,225.91,0,0,1,81.21,235a228.11,228.11,0,0,1-26.37-12.69,113.61,113.61,0,0,1,28.25,7.29" fill="#25b774"/>
    <path d="M88.06,243.83A118.11,118.11,0,0,1,115.62,255a211,211,0,0,1-28.78-5.6,220.87,220.87,0,0,1-27.42-9.33,114,114,0,0,1,28.65,3.73" fill="#25b774"/>
    <path d="M118.71,224.79a238,238,0,0,0-3.1,30.25,117.11,117.11,0,0,0,8.82-28.54,127.44,127.44,0,0,0,1.42-31.19,213.92,213.92,0,0,0-7.15,29.48" fill="#25b774"/>
    <path d="M98.86,262a118.24,118.24,0,0,1,27.07,12.34,212.3,212.3,0,0,1-28.53-6.79,220.78,220.78,0,0,1-27-10.45A114.06,114.06,0,0,1,98.86,262" fill="#068e4d"/>
    <path d="M130.27,244.29a236.56,236.56,0,0,0-4.34,30.1,116.94,116.94,0,0,0,10-28.16,127.42,127.42,0,0,0,2.71-31.1,214.43,214.43,0,0,0-8.36,29.16" fill="#068e4d"/>
    <path d="M108.9,280.69a118.21,118.21,0,0,1,26.54,13.47,213.62,213.62,0,0,1-28.23-8,221.65,221.65,0,0,1-26.55-11.57,113.82,113.82,0,0,1,28.24,6.08" fill="#068e4d"/>
    <path d="M141,264.26a236.09,236.09,0,0,0-5.58,29.9,117.46,117.46,0,0,0,11.15-27.73,127.2,127.2,0,0,0,4-31A214.24,214.24,0,0,0,141,264.26" fill="#068e4d"/>
    <path d="M92.62,217.67A529.26,529.26,0,0,1,149.48,328" fill="none" stroke="#36e69a" stroke-linecap="round" stroke-linejoin="round" stroke-width="2"/>
    <animate
        attributeName="opacity"
        values="0; 1"
        dur="0.4s"
        begin="prize1MoveLeaf.begin"
        fill="freeze"
        />
    <animateTransform
        id="prize1MoveLeaf"
        attributeName="transform"
        type="translate"
        from="-55, 0"
        to="0, 0"
        dur="0.4s"
        begin="prize1MountainsAnimation.end - 0.2s"
        additive="sum"
        />
    <animateTransform
        attributeName="transform"
        type="rotate"
        values="-6 150 330; 6 150 330; -3 150 330; 3 150 330; -1 150 330; 0 150 330"
        dur="1.1s"
        begin="prize1MoveLeaf.end"
        additive="replace"
        fill="freeze"
        />
    <animateTransform
        attributeName="transform"
        type="rotate"
        values="0 150 330; 2 150 330; -1 150 330; 0 150 330"
        dur="4s"
        begin="prize1MoveLeaf.end + 1.2s"
        additive="replace"
        repeatCount="indefinite"
        />
  </g>
  <animate
      id="prize1Animation"
      attributeName="opacity"
      values="0; 1"
      dur="0.5s"
      begin="indefinite"
      fill="freeze"
      />
</svg>
